<svg width="100" height="100" viewBox="0 0 100 100" fill="none" xmlns="http://www.w3.org/2000/svg">
<g clip-path="url(#clip0_162_1653)">
<path fill-rule="evenodd" clip-rule="evenodd" d="M95.6195 71.2832C95.5609 70.8992 95.6164 70.5069 95.7731 70.1514C98.4909 63.987 100 57.1697 100 50C100 22.3858 77.6142 0 50 0C22.3858 0 0 22.3858 0 50C0 77.6142 22.3858 100 50 100C57.1697 100 63.987 98.4909 70.1514 95.7731C70.5069 95.6164 70.8992 95.5609 71.2832 95.6195L97.3111 99.5898C98.6448 99.7933 99.7933 98.6448 99.5898 97.3111L95.6195 71.2832Z" fill="#030D03"/>
<path d="M53 32.75C53 31.5074 54.0074 30.5 55.25 30.5H61.25C62.4926 30.5 63.5 31.5074 63.5 32.75V33.5L58.25 34.25L53 33.5V32.75Z" fill="#00D26A"/>
<path d="M29 38C29 35.5147 31.0147 33.5 33.5 33.5H66.5C68.9853 33.5 71 35.5147 71 38V44H29V38Z" fill="#FFB02E"/>
<path d="M45.5 38.75C45.5 37.5074 46.5074 36.5 47.75 36.5H53.75C54.9926 36.5 56 37.5074 56 38.75V39.5L50.75 41L45.5 39.5V38.75Z" fill="#00A6ED"/>
<path d="M29 44C29 41.5147 31.0147 39.5 33.5 39.5H66.5C68.9853 39.5 71 41.5147 71 44V51.5H29V44Z" fill="#F9C23C"/>
<path d="M36.5 44.75C36.5 43.5074 37.5074 42.5 38.75 42.5H44.75C45.9926 42.5 47 43.5074 47 44.75V45.5L41.75 47L36.5 45.5V44.75Z" fill="#F8312F"/>
<path d="M29 50C29 47.5147 31.0147 45.5 33.5 45.5H66.5C68.9853 45.5 71 47.5147 71 50V66.5C71 68.9853 68.9853 71 66.5 71H33.5C31.0147 71 29 68.9853 29 66.5V50Z" fill="#FCD53F"/>
</g>
<defs>
<clipPath id="clip0_162_1653">
<rect width="100" height="100" fill="white"/>
</clipPath>
</defs>
</svg>
