<svg width="148" height="144" viewBox="0 0 148 144" fill="none" xmlns="http://www.w3.org/2000/svg">
<g filter="url(#filter0_d_169_605)">
<mask id="path-1-inside-1_169_605" fill="white">
<path fill-rule="evenodd" clip-rule="evenodd" d="M36 16C29.3726 16 24 21.3726 24 28V77C24 83.6274 29.3726 89 36 89H55.4726C56.1088 89 56.707 89.3027 57.0839 89.8152L72.1074 110.247C72.9067 111.334 74.5308 111.334 75.3301 110.247L90.3536 89.8152C90.7305 89.3027 91.3287 89 91.9649 89H112C118.627 89 124 83.6274 124 77V28C124 21.3726 118.627 16 112 16H36Z"/>
</mask>
<path fill-rule="evenodd" clip-rule="evenodd" d="M36 16C29.3726 16 24 21.3726 24 28V77C24 83.6274 29.3726 89 36 89H55.4726C56.1088 89 56.707 89.3027 57.0839 89.8152L72.1074 110.247C72.9067 111.334 74.5308 111.334 75.3301 110.247L90.3536 89.8152C90.7305 89.3027 91.3287 89 91.9649 89H112C118.627 89 124 83.6274 124 77V28C124 21.3726 118.627 16 112 16H36Z" fill="white"/>
<path d="M90.3536 89.8152L89.9508 89.519L90.3536 89.8152ZM72.1074 110.247L71.7046 110.543L72.1074 110.247ZM75.3301 110.247L75.7329 110.543L75.3301 110.247ZM57.0839 89.8152L56.6811 90.1114L57.0839 89.8152ZM24.5 28C24.5 21.6487 29.6487 16.5 36 16.5V15.5C29.0964 15.5 23.5 21.0964 23.5 28H24.5ZM24.5 77V28H23.5V77H24.5ZM36 88.5C29.6487 88.5 24.5 83.3513 24.5 77H23.5C23.5 83.9036 29.0964 89.5 36 89.5V88.5ZM55.4726 88.5H36V89.5H55.4726V88.5ZM72.5103 109.951L57.4867 89.519L56.6811 90.1114L71.7046 110.543L72.5103 109.951ZM89.9508 89.519L74.9272 109.951L75.7329 110.543L90.7564 90.1114L89.9508 89.519ZM112 88.5H91.9649V89.5H112V88.5ZM123.5 77C123.5 83.3513 118.351 88.5 112 88.5V89.5C118.904 89.5 124.5 83.9036 124.5 77H123.5ZM123.5 28V77H124.5V28H123.5ZM112 16.5C118.351 16.5 123.5 21.6487 123.5 28H124.5C124.5 21.0964 118.904 15.5 112 15.5V16.5ZM36 16.5H112V15.5H36V16.5ZM90.7564 90.1114C91.0391 89.727 91.4877 89.5 91.9649 89.5V88.5C91.1696 88.5 90.4219 88.8783 89.9508 89.519L90.7564 90.1114ZM71.7046 110.543C72.7037 111.902 74.7338 111.902 75.7329 110.543L74.9272 109.951C74.3278 110.766 73.1097 110.766 72.5103 109.951L71.7046 110.543ZM55.4726 89.5C55.9497 89.5 56.3984 89.727 56.6811 90.1114L57.4867 89.519C57.0156 88.8783 56.2678 88.5 55.4726 88.5V89.5Z" fill="#9498FF" mask="url(#path-1-inside-1_169_605)"/>
</g>
<path d="M73.9985 72.2469C86.8333 72.2469 93.2469 63.6291 93.2469 52.9985C93.2469 42.3678 86.8333 33.75 73.9985 33.75C61.1636 33.75 54.75 42.3678 54.75 52.9985C54.75 63.6291 61.1636 72.2469 73.9985 72.2469Z" fill="#FFB02E"/>
<path d="M74 65.375C61.625 65.375 61.625 53 61.625 53H86.375C86.375 53 86.375 65.375 74 65.375Z" fill="#BB1D80"/>
<path d="M63 53.6875V53H85V53.6875C85 54.4469 84.3844 55.0625 83.625 55.0625H64.375C63.6156 55.0625 63 54.4469 63 53.6875Z" fill="white"/>
<path d="M56.3739 44.4068C59.1459 47.606 62.8338 49.007 64.7241 49.548C65.4984 49.7696 66.3109 49.5473 66.8843 48.9817C68.5253 47.3631 71.8327 43.6491 72.5397 39.4085C73.527 33.487 66.102 31.6818 63.1098 36.5625C56.1103 33.2748 52.4077 39.8292 56.3739 44.4068Z" fill="#F70A8D"/>
<path d="M91.6237 44.409C88.8531 47.6066 85.1671 49.0071 83.2775 49.5479C82.5032 49.7696 81.6907 49.5473 81.1173 48.9817C79.4768 47.3636 76.1711 43.6513 75.4645 39.4128C74.4777 33.4936 81.8996 31.6892 84.8906 36.5679C91.8872 33.2815 95.5884 39.8333 91.6237 44.409Z" fill="#F70A8D"/>
<circle cx="124.294" cy="16.2943" r="9.20588" fill="#EF1B1B" stroke="#FDEBF6"/>
<path d="M121.96 19.3716C121.574 19.3716 121.232 19.2934 120.933 19.137C120.633 18.9806 120.399 18.7636 120.229 18.4859C120.059 18.2082 119.974 17.8901 119.974 17.5315C119.974 17.2107 120.048 16.9127 120.197 16.6377C120.345 16.3627 120.562 16.143 120.848 15.9786L120.828 16.2899C120.604 16.1201 120.43 15.9246 120.306 15.7036C120.185 15.4798 120.124 15.229 120.124 14.9513C120.124 14.617 120.202 14.3272 120.358 14.0819C120.517 13.8365 120.735 13.6464 121.01 13.5116C121.285 13.3741 121.601 13.3054 121.96 13.3054C122.318 13.3054 122.635 13.3741 122.91 13.5116C123.188 13.6464 123.405 13.8365 123.561 14.0819C123.72 14.3272 123.8 14.617 123.8 14.9513C123.8 15.229 123.741 15.4784 123.622 15.6995C123.506 15.9206 123.33 16.1201 123.092 16.298L123.088 15.9826C123.369 16.1417 123.583 16.36 123.731 16.6377C123.882 16.9127 123.958 17.2107 123.958 17.5315C123.958 17.8901 123.871 18.2082 123.699 18.4859C123.529 18.7636 123.293 18.9806 122.991 19.137C122.692 19.2934 122.348 19.3716 121.96 19.3716ZM121.96 18.4536C122.246 18.4536 122.478 18.3754 122.655 18.219C122.836 18.0626 122.926 17.8335 122.926 17.5315C122.926 17.2295 122.837 17.0004 122.66 16.844C122.482 16.6849 122.248 16.6054 121.96 16.6054C121.674 16.6054 121.444 16.6849 121.268 16.844C121.093 17.0004 121.005 17.2295 121.005 17.5315C121.005 17.8335 121.093 18.0626 121.268 18.219C121.444 18.3754 121.674 18.4536 121.96 18.4536ZM121.96 15.6793C122.2 15.6793 122.394 15.62 122.542 15.5013C122.693 15.38 122.769 15.1967 122.769 14.9513C122.769 14.706 122.693 14.524 122.542 14.4054C122.394 14.2841 122.2 14.2234 121.96 14.2234C121.723 14.2234 121.529 14.2841 121.378 14.4054C121.229 14.524 121.155 14.706 121.155 14.9513C121.155 15.1967 121.229 15.38 121.378 15.5013C121.529 15.62 121.723 15.6793 121.96 15.6793ZM126.912 19.3716C126.527 19.3716 126.184 19.2934 125.885 19.137C125.586 18.9806 125.351 18.7636 125.181 18.4859C125.012 18.2082 124.927 17.8901 124.927 17.5315C124.927 17.2107 125.001 16.9127 125.149 16.6377C125.297 16.3627 125.514 16.143 125.8 15.9786L125.78 16.2899C125.556 16.1201 125.382 15.9246 125.258 15.7036C125.137 15.4798 125.076 15.229 125.076 14.9513C125.076 14.617 125.155 14.3272 125.311 14.0819C125.47 13.8365 125.687 13.6464 125.962 13.5116C126.237 13.3741 126.554 13.3054 126.912 13.3054C127.271 13.3054 127.588 13.3741 127.863 13.5116C128.14 13.6464 128.357 13.8365 128.514 14.0819C128.673 14.3272 128.752 14.617 128.752 14.9513C128.752 15.229 128.693 15.4784 128.574 15.6995C128.459 15.9206 128.282 16.1201 128.045 16.298L128.041 15.9826C128.321 16.1417 128.535 16.36 128.684 16.6377C128.835 16.9127 128.91 17.2107 128.91 17.5315C128.91 17.8901 128.824 18.2082 128.651 18.4859C128.481 18.7636 128.246 18.9806 127.944 19.137C127.644 19.2934 127.301 19.3716 126.912 19.3716ZM126.912 18.4536C127.198 18.4536 127.43 18.3754 127.608 18.219C127.789 18.0626 127.879 17.8335 127.879 17.5315C127.879 17.2295 127.79 17.0004 127.612 16.844C127.434 16.6849 127.201 16.6054 126.912 16.6054C126.627 16.6054 126.396 16.6849 126.221 16.844C126.046 17.0004 125.958 17.2295 125.958 17.5315C125.958 17.8335 126.046 18.0626 126.221 18.219C126.396 18.3754 126.627 18.4536 126.912 18.4536ZM126.912 15.6793C127.152 15.6793 127.346 15.62 127.495 15.5013C127.646 15.38 127.721 15.1967 127.721 14.9513C127.721 14.706 127.646 14.524 127.495 14.4054C127.346 14.2841 127.152 14.2234 126.912 14.2234C126.675 14.2234 126.481 14.2841 126.33 14.4054C126.182 14.524 126.108 14.706 126.108 14.9513C126.108 15.1967 126.182 15.38 126.33 15.5013C126.481 15.62 126.675 15.6793 126.912 15.6793Z" fill="white"/>
<defs>
<filter id="filter0_d_169_605" x="0" y="0" width="148" height="143.062" filterUnits="userSpaceOnUse" color-interpolation-filters="sRGB">
<feFlood flood-opacity="0" result="BackgroundImageFix"/>
<feColorMatrix in="SourceAlpha" type="matrix" values="0 0 0 0 0 0 0 0 0 0 0 0 0 0 0 0 0 0 127 0" result="hardAlpha"/>
<feOffset dy="8"/>
<feGaussianBlur stdDeviation="12"/>
<feComposite in2="hardAlpha" operator="out"/>
<feColorMatrix type="matrix" values="0 0 0 0 0 0 0 0 0 0 0 0 0 0 0 0 0 0 0.1 0"/>
<feBlend mode="normal" in2="BackgroundImageFix" result="effect1_dropShadow_169_605"/>
<feBlend mode="normal" in="SourceGraphic" in2="effect1_dropShadow_169_605" result="shape"/>
</filter>
</defs>
</svg>
